# xmcd
#
# Track frame offsets:
#	150
#	15695
#	29182
#	45155
#	57605
#	81530
#	98917
#	117157
#	137355
#	151580
#	165845
#	184030
#	196684
#	212945
#	231452
#	253290
#	278165
#	291977
#	301477
#
# Disc length: 4266
#
# Revision: 1
# Processed by: cddbd v1.5.1PL0 Copyright (c) Steve Scherf et al.
# Submitted via: CDex 1.50
# Normalized: r0:TDELIM( - )
#
DISCID=0e10a813
DTITLE=Baila Copacabana - Salsa - Mambo - Latino
DYEAR=2000
DGENRE=Salsa
TTITLE0=Gipsyland - viva la musica
TTITLE1=Ozomatli - como ves
TTITLE2=Praian - pachanga
TTITLE3=Los Lobos - cumbia raza
TTITLE4=Tito Puente Jr. and Latin Rhythm - oye como va
TTITLE5=Latin Lou and The Mambo All Stars - mambo #5
TTITLE6=Zapata - cay cay
TTITLE7=Kaoma - todo
TTITLE8=Mambo Maniacs - mambo on 45 medley
TTITLE9=Los Ninos De Sara - la cubanita
TTITLE10=Zapata - un, dos, tres, maria
TTITLE11=Carrilio - samba de janeiro
TTITLE12=Cocoloco - la bundinha
TTITLE13=Nel-Lo - y la banda Del Zoco pura vida
TTITLE14=Amparanoia - la maldicion
TTITLE15=Arturo Sandova - tito
TTITLE16=Mambo Boys - el cumbanchero
TTITLE17=Perez Prado - patricia
TTITLE18=Gibson Brothers - latin america 2000
EXTD=YEAR: 2000
EXTT0=
EXTT1=
EXTT2=
EXTT3=
EXTT4=
EXTT5=
EXTT6=
EXTT7=
EXTT8=
EXTT9=
EXTT10=
EXTT11=
EXTT12=
EXTT13=
EXTT14=
EXTT15=
EXTT16=
EXTT17=
EXTT18=
PLAYORDER=
